# xmcd
#
# Track frame offsets:
#	150
#	16596
#	34780
#	55023
#	72640
#	88963
#	105469
#	124261
#	141988
#	159080
#	176615
#	194802
#	208351
#	227512
#	246063
#
# Disc length: 3500 seconds
#
# Revision: 0
# Processed by: cddbd v1.4PL0 Copyright (c) Steve Scherf et al.
# Submitted via: audiograbber 1.81.02
#
DISCID=d30daa0f
DTITLE=Rick e Renner - Só Pensando em Você
DYEAR=2002
DGENRE=Country
TTITLE0=Você Decide
TTITLE1=É Você
TTITLE2=Só Pensando em Você
TTITLE3=Não Quero, Mas Eu te Amo
TTITLE4=Eu Sem Você
TTITLE5=Vou Ganhar Você
TTITLE6=Tchau Saudade
TTITLE7=Chama Por Ela
TTITLE8=Simbora Bora
TTITLE9=Noistropica, Mas Não Cai
TTITLE10=Eu Amo Essa Mulher
TTITLE11=Vontade de Te Ver
TTITLE12=Paixão Caliente
TTITLE13=Onde Anda Você
TTITLE14=Rodeio e Vaquejada
EXTD=
EXTT0=
EXTT1=
EXTT2=
EXTT3=
EXTT4=
EXTT5=
EXTT6=
EXTT7=
EXTT8=
EXTT9=
EXTT10=
EXTT11=
EXTT12=
EXTT13=
EXTT14=
PLAYORDER=
